<?xml version="1.0" standalone="no"?>
<!DOCTYPE svg PUBLIC "-//W3C//DTD SVG 1.1//EN" "http://www.w3.org/Graphics/SVG/1.1/DTD/svg11.dtd">
<svg t="1688417935657" class="icon" viewBox="0 0 1024 1024" version="1.1"
    xmlns="http://www.w3.org/2000/svg" p-id="1710" xmlns:xlink="http://www.w3.org/1999/xlink"
    width="200" height="200">
    <path
        d="M716.8 0H307.2C137.5488 0 0 137.5488 0 307.2v409.6c0 169.6512 137.5488 307.2 307.2 307.2h409.6c169.6512 0 307.2-137.5488 307.2-307.2V307.2c0-169.6512-137.5488-307.2-307.2-307.2z"
        fill="#6CB0FF20" p-id="1711"></path>
    <path
        d="M640 448a191.8464 191.8464 0 0 1-89.9072 162.6368l68.0192 119.04A25.6 25.6 0 0 1 595.8912 768H297.4208a25.6 25.6 0 0 1-22.8864-37.0432l62.976-125.952A192 192 0 1 1 640 448z m-107.4688 55.296a6.4 6.4 0 0 0-4.5568-8.2688 7.3216 7.3216 0 0 0-8.6272 4.736 75.9808 75.9808 0 0 1-144.2048-4.5568 7.3216 7.3216 0 0 0-8.32-5.2736 6.4 6.4 0 0 0-5.0688 7.9616 89.6 89.6 0 0 0 170.7776 5.376z"
        fill="#0B99FF" p-id="1712"></path>
    <path
        d="M353.880449 406.085119m-6.082807-17.236571l-0.00852-0.024141q-6.082807-17.236571-23.319377-11.153763l-0.024141 0.008519q-17.236571 6.082807-11.153764 23.319378l0.00852 0.02414q6.082807 17.236571 23.319377 11.153764l0.024141-0.008519q17.236571-6.082807 11.153764-23.319378Z"
        fill="#FFFFFF" p-id="1713"></path>
    <path
        d="M334.976 351.104a13.568 13.568 0 0 0 23.0912-2.6112l4.8128-10.5472a20.48 20.48 0 0 1 11.8272-10.8544l23.7312-8.3712a11.9808 11.9808 0 0 0 7.1424-15.7952 11.8016 11.8016 0 0 0-14.464-6.912c-37.632 11.776-52.9152 22.6048-58.5216 44.6464a12.3136 12.3136 0 0 0 2.3808 10.4448z"
        fill="#FFFFFF" p-id="1714"></path>
    <path
        d="M640 768a128 128 0 1 1 0-256c70.4256 0 128 57.5744 128 128 0.5376 70.9888-57.0112 128-128 128z m53.6576-145.8944h-35.2v-35.2a17.664 17.664 0 0 0-17.92-17.92 17.664 17.664 0 0 0-17.8688 17.92V622.08h-35.7632a17.664 17.664 0 0 0-17.8944 17.8944 17.664 17.664 0 0 0 17.8944 17.8944h35.7632v35.7632a17.664 17.664 0 0 0 17.8944 17.8944 17.664 17.664 0 0 0 17.8944-17.8944V657.92h35.2a17.664 17.664 0 0 0 17.8944-17.8944 17.664 17.664 0 0 0-17.8944-17.8944z"
        fill="#6CB0FF" p-id="1715"></path>
</svg>