<?xml version="1.0" standalone="no"?>
<!DOCTYPE svg PUBLIC "-//W3C//DTD SVG 1.1//EN" "http://www.w3.org/Graphics/SVG/1.1/DTD/svg11.dtd">
<svg
  t="1688417962081"
  class="icon"
  viewBox="0 0 1024 1024"
  version="1.1"
  xmlns="http://www.w3.org/2000/svg"
  p-id="2008"
  xmlns:xlink="http://www.w3.org/1999/xlink"
  width="200"
  height="200"
>
  <path
    d="M716.8 0H307.2C137.5488 0 0 137.5488 0 307.2v409.6c0 169.6512 137.5488 307.2 307.2 307.2h409.6c169.6512 0 307.2-137.5488 307.2-307.2V307.2c0-169.6512-137.5488-307.2-307.2-307.2z"
    fill="#F094FF20"
    p-id="2009"
  ></path>
  <path
    d="M477.3888 387.7376a25.6 25.6 0 0 1 18.2272-0.5376l260.608 90.1888c22.1696 7.68 23.1936 38.656 1.5872 47.7696l-261.504 110.6432a25.6 25.6 0 0 1-19.84 0.0768l-240.5632-100.2496c-20.992-8.7552-20.992-38.5024 0-47.2576l241.4848-100.608z"
    fill="#F094FF"
    fill-opacity=".5"
    p-id="2010"
  ></path>
  <path
    d="M477.3888 515.7376a25.6 25.6 0 0 1 18.2272-0.5376l260.608 90.1888c22.1696 7.68 23.1936 38.656 1.5872 47.7696l-261.504 110.6432a25.6 25.6 0 0 1-19.84 0.0768l-240.5632-100.2496c-20.992-8.7552-20.992-38.5024 0-47.2576l241.4848-100.608z"
    fill="#F094FF"
    fill-opacity=".3"
    p-id="2011"
  ></path>
  <path
    d="M477.3888 259.7376a25.6 25.6 0 0 1 18.2272-0.5376l260.608 90.1888c22.1696 7.68 23.1936 38.656 1.5872 47.7696l-261.504 110.6432a25.6 25.6 0 0 1-19.84 0.0768l-240.5632-100.2496c-20.992-8.7552-20.992-38.5024 0-47.2576l241.4848-100.608z"
    fill="#C862D9"
    p-id="2012"
  ></path>
  <path
    d="M288.1792 377.2928a20.0192 20.0192 0 0 1 25.4976-12.288l119.552 41.6768a20.0192 20.0192 0 0 1-13.184 37.7856l-119.552-41.6768a20.0192 20.0192 0 0 1-12.288-25.4976zM472.3712 443.3152a21.7344 21.7344 0 0 1 41.0368 14.3104 21.7344 21.7344 0 1 1-41.0368-14.3104z"
    fill="#FFFFFF"
    p-id="2013"
  ></path>
</svg>
