<?xml version="1.0" standalone="no"?>
<!DOCTYPE svg PUBLIC "-//W3C//DTD SVG 1.1//EN" "http://www.w3.org/Graphics/SVG/1.1/DTD/svg11.dtd">
<svg
  t="1688417757708"
  class="icon"
  viewBox="0 0 1024 1024"
  version="1.1"
  xmlns="http://www.w3.org/2000/svg"
  p-id="1411"
  xmlns:xlink="http://www.w3.org/1999/xlink"
  width="200"
  height="200"
>
  <path
    d="M716.8 0H307.2C137.5488 0 0 137.5488 0 307.2v409.6c0 169.6512 137.5488 307.2 307.2 307.2h409.6c169.6512 0 307.2-137.5488 307.2-307.2V307.2c0-169.6512-137.5488-307.2-307.2-307.2z"
    fill="#FA8A0C20"
    p-id="1412"
  ></path>
  <path
    d="M153.6 332.8a76.8 76.8 0 0 1 76.8-76.8h478.8224a76.8 76.8 0 0 1 76.8 76.8v30.72H153.6V332.8z m0 57.6h632.4224v102.272A153.6 153.6 0 0 0 625.664 739.84H230.4a76.8 76.8 0 0 1-76.8-76.8V390.4z m247.4752 188.16H236.0832v26.88h164.992V578.56z m-164.992 53.76v26.88h164.992V632.32H236.0832z"
    fill="#FA8A0C"
    p-id="1413"
  ></path>
  <path
    d="M230.4 460.8m25.6 0l230.4 0q25.6 0 25.6 25.6l0 0q0 25.6-25.6 25.6l-230.4 0q-25.6 0-25.6-25.6l0 0q0-25.6 25.6-25.6Z"
    fill="#FFFFFF"
    p-id="1414"
  ></path>
  <path
    d="M537.6 460.8m25.6 0l0 0q25.6 0 25.6 25.6l0 0q0 25.6-25.6 25.6l0 0q-25.6 0-25.6-25.6l0 0q0-25.6 25.6-25.6Z"
    fill="#FFFFFF"
    p-id="1415"
  ></path>
  <path
    d="M719.6928 532.5568c2.7136-27.392 42.7008-27.392 45.4144 0a22.8352 22.8352 0 0 0 37.1968 15.4112c21.3248-17.4592 49.5872 10.8032 32.128 32.128a22.8352 22.8352 0 0 0 15.4112 37.1968c27.392 2.7136 27.392 42.7008 0 45.4144a22.8352 22.8352 0 0 0-15.4112 37.1968c17.4592 21.3248-10.8032 49.5872-32.128 32.128a22.8352 22.8352 0 0 0-37.1968 15.4112c-2.7136 27.392-42.7008 27.392-45.4144 0a22.8352 22.8352 0 0 0-37.1968-15.4112c-21.3248 17.4592-49.5872-10.8032-32.128-32.128a22.8352 22.8352 0 0 0-15.4112-37.1968c-27.392-2.7136-27.392-42.7008 0-45.4144a22.8352 22.8352 0 0 0 15.4112-37.1968c-17.4592-21.3248 10.8032-49.5872 32.128-32.128a22.8352 22.8352 0 0 0 37.1968-15.4112zM800.5888 640a58.1888 58.1888 0 1 0-116.3776 0 58.1888 58.1888 0 0 0 116.3776 0zM742.4 665.6a25.6 25.6 0 1 0 0-51.2 25.6 25.6 0 0 0 0 51.2z"
    fill="#FEBF60"
    p-id="1416"
  ></path>
</svg>
