<?xml version="1.0" standalone="no"?>
<!DOCTYPE svg PUBLIC "-//W3C//DTD SVG 1.1//EN" "http://www.w3.org/Graphics/SVG/1.1/DTD/svg11.dtd">
<svg
  t="1688417815929"
  class="icon"
  viewBox="0 0 1024 1024"
  version="1.1"
  xmlns="http://www.w3.org/2000/svg"
  p-id="1562"
  xmlns:xlink="http://www.w3.org/1999/xlink"
  width="200"
  height="200"
>
  <path
    d="M716.8 0H307.2C137.5488 0 0 137.5488 0 307.2v409.6c0 169.6512 137.5488 307.2 307.2 307.2h409.6c169.6512 0 307.2-137.5488 307.2-307.2V307.2c0-169.6512-137.5488-307.2-307.2-307.2z"
    fill="#6CB0FF20"
    p-id="1563"
  ></path>
  <path d="M691.2 281.6a25.6 25.6 0 1 1 51.2 0v460.8a25.6 25.6 0 1 1-51.2 0V281.6z" fill="#6CB0FF" p-id="1564"></path>
  <path
    d="M281.6 281.6a25.6 25.6 0 0 1 25.6-25.6h332.8a25.6 25.6 0 0 1 25.6 25.6v460.8a25.6 25.6 0 0 1-25.6 25.6H307.2a25.6 25.6 0 0 1-25.6-25.6V281.6z m51.2 320a12.8 12.8 0 0 0 12.8 12.8h256a12.8 12.8 0 0 0 0-25.6h-256a12.8 12.8 0 0 0-12.8 12.8z m12.8 89.6a12.8 12.8 0 0 0 0 25.6h256a12.8 12.8 0 0 0 0-25.6h-256z"
    fill="#0B77FF"
    p-id="1565"
  ></path>
  <path
    d="M332.8 358.4a25.6 25.6 0 0 1 25.6-25.6h153.6a25.6 25.6 0 1 1 0 51.2h-153.6a25.6 25.6 0 0 1-25.6-25.6zM563.2 358.4a25.6 25.6 0 1 1 51.2 0 25.6 25.6 0 1 1-51.2 0z"
    fill="#FFFFFF"
    p-id="1566"
  ></path>
</svg>
